<svg xmlns="http://www.w3.org/2000/svg" width="230" height="30" viewBox="0 0 230 30">
  <g id="lable_g" transform="translate(-711 4767)" fill="#12b72d">
    <path d="M 939.9586791992188 -4737.50048828125 L 712.0402221679688 -4737.50048828125 L 723.389892578125 -4751.68798828125 L 723.6397094726562 -4752.00048828125 L 723.389892578125 -4752.31298828125 L 712.0402221679688 -4766.50048828125 L 939.9597778320312 -4766.50048828125 L 928.610107421875 -4752.3115234375 L 928.3602905273438 -4751.9990234375 L 928.610107421875 -4751.6865234375 L 939.9586791992188 -4737.50048828125 Z" stroke="none"/>
    <path d="M 938.9183959960938 -4738.00048828125 L 927.719970703125 -4751.9990234375 L 928.2196655273438 -4752.62353515625 L 938.9195556640625 -4766.00048828125 L 713.0805053710938 -4766.00048828125 L 724.280029296875 -4752.00048828125 L 713.0805053710938 -4738.00048828125 L 938.9183959960938 -4738.00048828125 M 940.9990844726562 -4737.00048828125 L 940.9970092773438 -4737.00048828125 L 940.9990844726562 -4737.00048828125 Z M 940.9990844726562 -4737.00048828125 L 710.9999389648438 -4737.00048828125 L 722.9994506835938 -4752.00048828125 L 710.9999389648438 -4767.00048828125 L 941 -4767.00048828125 L 929.0005493164062 -4751.9990234375 L 940.9990844726562 -4737.00048828125 Z" stroke="none" fill="#7aff8f"/>
  </g>
</svg>
